Coordinates
version=1
nRows=5
nColumns=42
inDegrees=yes

Units are S.I. units (second, meters, Newtons, ...)
If the header above contains a line with 'inDegrees', this indicates whether rotational values are in degrees (yes) or radians (no).

endheader
time	pelvis_tilt	pelvis_list	pelvis_rotation	pelvis_tx	pelvis_ty	pelvis_tz	hip_flexion_r	hip_adduction_r	hip_rotation_r	knee_angle_r	knee_adduction_r	knee_angle_r_beta	ankle_angle_r	subtalar_angle_r	mtp_angle_r	hip_flexion_l	hip_adduction_l	hip_rotation_l	knee_angle_l	knee_adduction_l	knee_angle_l_beta	ankle_angle_l	subtalar_angle_l	mtp_angle_l	lumbar_extension	lumbar_bending	lumbar_rotation	arm_flex_r	arm_add_r	arm_rot_r	elbow_flex_r	pro_sup_r	wrist_flex_r	wrist_dev_r	arm_flex_l	arm_add_l	arm_rot_l	elbow_flex_l	pro_sup_l	wrist_flex_l	wrist_dev_l
      0.00000000	      5.48415553	      1.96858962	     -5.02961011	     -2.81778991	      0.83609365	      0.11393167	    -18.21467028	      0.31310768	    -21.65641502	     33.51003534	    -12.83549358	      0.58486045	      7.83685895	     22.54204724	     -9.41605959	     26.43992191	      6.38356452	     -3.27733923	     31.15454580	     -4.78099258	      0.54374940	      5.97026233	     -7.24123728	     -9.41605959	    -21.03732800	     -3.87540416	     10.42536880	     12.50467152	    -21.83102557	      8.80706324	     54.97779679	     90.00000001	      0.00000000	      0.00000000	     -9.27136211	    -16.92097613	     33.85480285	     31.04170723	     90.00000001	      0.00000000	      0.00000000
      0.01000000	      5.80273742	      2.50077367	     -4.81442083	     -2.80396928	      0.83788493	      0.11302099	    -17.46959274	     -0.71349949	    -22.59132449	     36.31970614	    -13.52886106	      0.63389846	      4.18468367	     21.84437927	     -9.39652691	     25.55357796	      7.18488850	     -3.03219891	     32.05825730	     -4.51490204	      0.55952214	      6.87319685	     -7.57364352	     -9.39652691	    -21.38635946	     -4.45820403	     10.14621553	     11.97611836	    -21.69443867	      8.88590923	     54.20222775	     90.00000001	      0.00000000	      0.00000000	     -8.32836866	    -17.05316797	     33.85547142	     31.11547453	     90.00000001	      0.00000000	      0.00000000
      0.02000000	      5.79426410	      3.05298287	     -4.47062772	     -2.79048517	      0.83949936	      0.11198746	    -16.02113240	     -1.63538878	    -23.79316503	     39.44435310	    -14.63768401	      0.68843383	      0.15116141	     20.15713078	     -9.37016117	     24.81569507	      8.13862074	     -2.61974441	     32.49135072	     -4.44449701	      0.56708105	      7.68471737	     -7.94210625	     -9.37016117	    -21.36984630	     -4.99684522	      9.80637261	     11.39888328	    -21.52786720	      9.00648102	     53.16234173	     90.00000001	      0.00000000	      0.00000000	     -7.27005456	    -17.25143578	     33.92921154	     31.12133794	     90.00000001	      0.00000000	      0.00000000
      0.03000000	      5.70549127	      3.42426047	     -3.99393824	     -2.77745642	      0.84138223	      0.11071281	    -14.31097653	     -2.34542796	    -24.76290614	     42.77054952	    -15.57199911	      0.74648691	     -3.45468658	     17.25123925	     -9.32869669	     24.00616435	      8.94408195	     -2.08118739	     32.63083865	     -4.42739396	      0.56951557	      8.30779440	     -8.30670249	     -9.32869669	    -21.32613228	     -5.25393637	      9.39218891	     10.90139510	    -21.36172001	      9.18419422	     51.96684809	     90.00000001	      0.00000000	      0.00000000	     -6.10696050	    -17.37477015	     34.03959781	     31.16564370	     90.00000001	      0.00000000	      0.00000000
      0.04000000	      5.70597681	      3.59162400	     -3.64267458	     -2.76480577	      0.84382794	      0.10964999	    -12.59005804	     -2.78558308	    -24.67864770	     46.20208403	    -15.91068743	      0.80637849	     -6.68631772	     12.45396778	     -9.22173109	     22.93289809	      9.37370962	     -1.66205140	     32.51505071	     -4.24166938	      0.56749469	      8.96037594	     -8.74517595	     -9.22173109	    -21.41631272	     -5.29384736	      9.14179277	     10.48262277	    -21.30650939	      9.50295018	     50.79178491	     90.00000001	      0.00000000	      0.00000000	     -4.87325096	    -17.36274276	     33.92648578	     31.28479007	     90.00000001	      0.00000000	      0.00000000
